<svg id="Слой_1" data-name="Слой 1" xmlns="http://www.w3.org/2000/svg" viewBox="0 0 342.18 751.34"><defs><style>.cls-1,.cls-2,.cls-3,.cls-4{fill:none;stroke-miterlimit:10;}.cls-1,.cls-3{stroke:#435b6b;}.cls-1{stroke-width:28px;}.cls-2{stroke:#ffd15d;stroke-width:23px;}.cls-3{stroke-width:20px;}.cls-4{stroke:#c6c6c6;stroke-width:2px;stroke-dasharray:12;}</style></defs><path class="cls-1" d="M152,30.6C101,31,65.35,57.8,63.5,84.16c-1.48,21,18.28,43.56,39.77,52.68,37.11,15.76,63.2-15.42,98.35,2,16.1,8,31,24.63,32.91,43.9,2.35,23.84-15.47,49-37.24,59.05-39.63,18.35-70.71-23.21-117-5.2-2.68,1-35.31,14.27-41.81,42.84-5.33,23.46,8.4,50.9,27.87,65.55,41.67,31.34,129.56.17,181.82,3.33,24.76,1.49,68.47,4.13,89,32.51,17.29,23.87,16.64,58.84-12,78.58C304.33,473.8,286,474,187.63,474c-57.86,0-75.35,6.5-92.38,13.16C71.9,496.33,46.09,516.46,38,546c-5.73,20.84-5.63,50.57,11.61,70.45C60.4,629,108.42,652,175.76,614.16c41.57-23.34,82.07-47.12,118.84-36.77,47.62,13.4,56.86,68.17,44.91,95.32-20.9,47.51-98.33,87.07-155.61,80.52" transform="translate(-20.56 -16.6)"/><path class="cls-2" d="M152,30.6C101,31,65.35,57.8,63.5,84.16c-1.48,21,18.28,43.56,39.77,52.68,37.11,15.76,63.2-15.42,98.35,2,16.1,8,31,24.63,32.91,43.9,2.35,23.84-15.47,49-37.24,59.05-39.63,18.35-70.71-23.21-117-5.2-2.68,1-35.31,14.27-41.81,42.84-5.33,23.46,8.4,50.9,27.87,65.55,41.67,31.34,129.56.17,181.82,3.33,24.76,1.49,68.47,4.13,89,32.51,17.29,23.87,16.64,58.84-12,78.58C304.33,473.8,286,474,187.63,474c-57.86,0-75.35,6.5-92.38,13.16C71.9,496.33,46.09,516.46,38,546c-5.73,20.84-5.63,50.57,11.61,70.45C60.4,629,108.42,652,175.76,614.16c41.57-23.34,82.07-47.12,118.84-36.77,47.62,13.4,56.86,68.17,44.91,95.32-20.9,47.51-98.33,87.07-155.61,80.52" transform="translate(-20.56 -16.6)"/><path class="cls-3" d="M152,30.6C101,31,65.35,57.8,63.5,84.16c-1.48,21,18.28,43.56,39.77,52.68,37.11,15.76,63.2-15.42,98.35,2,16.1,8,31,24.63,32.91,43.9,2.35,23.84-15.47,49-37.24,59.05-39.63,18.35-70.71-23.21-117-5.2-2.68,1-35.31,14.27-41.81,42.84-5.33,23.46,8.4,50.9,27.87,65.55,41.67,31.34,129.56.17,181.82,3.33,24.76,1.49,68.47,4.13,89,32.51,17.29,23.87,16.64,58.84-12,78.58C304.33,473.8,286,474,187.63,474c-57.86,0-75.35,6.5-92.38,13.16C71.9,496.33,46.09,516.46,38,546c-5.73,20.84-5.63,50.57,11.61,70.45C60.4,629,108.42,652,175.76,614.16c41.57-23.34,82.07-47.12,118.84-36.77,47.62,13.4,56.86,68.17,44.91,95.32-20.9,47.51-98.33,87.07-155.61,80.52" transform="translate(-20.56 -16.6)"/><path class="cls-4" d="M152,30.6C101,31,65.35,57.8,63.5,84.16c-1.48,21,18.28,43.56,39.77,52.68,37.11,15.76,63.2-15.42,98.35,2,16.1,8,31,24.63,32.91,43.9,2.35,23.84-15.47,49-37.24,59.05-39.63,18.35-70.71-23.21-117-5.2-2.68,1-35.31,14.27-41.81,42.84-5.33,23.46,8.4,50.9,27.87,65.55,41.67,31.34,129.56.17,181.82,3.33,24.76,1.49,68.47,4.13,89,32.51,17.29,23.87,16.64,58.84-12,78.58C304.33,473.8,286,474,187.63,474c-57.86,0-75.35,6.5-92.38,13.16C71.9,496.33,46.09,516.46,38,546c-5.73,20.84-5.63,50.57,11.61,70.45C60.4,629,108.42,652,175.76,614.16c41.57-23.34,82.07-47.12,118.84-36.77,47.62,13.4,56.86,68.17,44.91,95.32-20.9,47.51-98.33,87.07-155.61,80.52" transform="translate(-20.56 -16.6)"/></svg>